<?xml version="1.0" encoding="UTF-8"?>
<svg version="1.1" xmlns="http://www.w3.org/2000/svg" width="512" height="512">
<path d="M0 0 C1.01790619 0.00215515 2.03581238 0.0043103 3.08456421 0.00653076 C17.69363523 0.05620146 32.02575853 0.30709809 46.375 3.3125 C47.34985352 3.51117676 48.32470703 3.70985352 49.32910156 3.91455078 C97.7109774 14.03517194 141.69928269 35.9516877 177.375 70.3125 C178.3640332 71.26068604 178.3640332 71.26068604 179.37304688 72.22802734 C188.86130305 81.37247479 197.6012044 90.66984009 205.375 101.3125 C206.23306152 102.46355017 207.09113451 103.61459177 207.94921875 104.765625 C213.98736829 112.95680614 219.34595521 121.47054105 224.375 130.3125 C224.73948242 130.94430176 225.10396484 131.57610352 225.47949219 132.22705078 C247.08534998 169.97532572 256.85198095 212.74189997 256.6875 255.9375 C256.68534485 256.95540619 256.6831897 257.97331238 256.68096924 259.02206421 C256.63129854 273.63113523 256.38040191 287.96325853 253.375 302.3125 C253.07698486 303.77478027 253.07698486 303.77478027 252.77294922 305.26660156 C242.65232806 353.6484774 220.7358123 397.63678269 186.375 433.3125 C185.74287598 433.97185547 185.11075195 434.63121094 184.45947266 435.31054688 C175.31502521 444.79880305 166.01765991 453.5387044 155.375 461.3125 C154.22394983 462.17056152 153.07290823 463.02863451 151.921875 463.88671875 C143.73224019 469.92427396 135.22961724 475.30707302 126.375 480.3125 C125.66778809 480.7146875 124.96057617 481.116875 124.23193359 481.53125 C101.09654164 494.5566741 75.92537591 503.30551461 49.9375 508.625 C49.21860596 508.77235596 48.49971191 508.91971191 47.7590332 509.0715332 C33.08339502 511.86090125 18.55831162 512.66142619 3.64770508 512.62817383 C0.70811513 512.6250221 -2.2304558 512.64854926 -5.16992188 512.67382812 C-18.54306192 512.71848737 -31.43916711 511.51301542 -44.625 509.3125 C-46.33055054 509.03031616 -46.33055054 509.03031616 -48.07055664 508.74243164 C-91.33802759 500.97044532 -132.38793216 480.98345309 -165.625 452.3125 C-166.37007813 451.67828125 -167.11515625 451.0440625 -167.8828125 450.390625 C-181.38779833 438.57948485 -194.05918743 425.82889772 -204.625 411.3125 C-205.48149066 410.16255169 -206.33826433 409.01281411 -207.1953125 407.86328125 C-213.23534209 399.67315742 -218.61867614 391.16870382 -223.625 382.3125 C-224.0271875 381.60528809 -224.429375 380.89807617 -224.84375 380.16943359 C-237.8691741 357.03404164 -246.61801461 331.86287591 -251.9375 305.875 C-252.08485596 305.15610596 -252.23221191 304.43721191 -252.3840332 303.6965332 C-255.35789088 288.05024391 -255.99800362 272.57681954 -255.9375 256.6875 C-255.93534485 255.66959381 -255.9331897 254.65168762 -255.93096924 253.60293579 C-255.88129854 238.99386477 -255.63040191 224.66174147 -252.625 210.3125 C-252.42632324 209.33764648 -252.22764648 208.36279297 -252.02294922 207.35839844 C-241.90232806 158.9765226 -219.9858123 114.98821731 -185.625 79.3125 C-184.99287598 78.65314453 -184.36075195 77.99378906 -183.70947266 77.31445312 C-174.56502521 67.82619695 -165.26765991 59.0862956 -154.625 51.3125 C-153.47394983 50.45443848 -152.32290823 49.59636549 -151.171875 48.73828125 C-142.98224019 42.70072604 -134.47961724 37.31792698 -125.625 32.3125 C-124.91778809 31.9103125 -124.21057617 31.508125 -123.48193359 31.09375 C-100.34654164 18.0683259 -75.17537591 9.31948539 -49.1875 4 C-48.46860596 3.85264404 -47.74971191 3.70528809 -47.0090332 3.5534668 C-31.36274391 0.57960912 -15.88931954 -0.06050362 0 0 Z " fill="#7A3DB4" transform="translate(255.625,-0.3125)"/>
<path d="M0 0 C2.97662267 0.01608853 5.95188455 0.00003298 8.9284668 -0.01904297 C53.33290279 -0.06995135 92.02044741 13.87960969 124.23120117 44.64111328 C139.63726406 60.62548183 151.25122061 79.43069012 158.54370117 100.39111328 C158.76896484 101.03306641 158.99422852 101.67501953 159.22631836 102.33642578 C166.18380195 122.58359628 167.00781742 143.40725194 166.94213867 164.63720703 C166.94416717 166.99121694 166.94708499 169.34522622 166.95083618 171.69923401 C166.95521702 176.58934621 166.94896296 181.47929214 166.93481445 186.36938477 C166.91765843 192.59794186 166.92763164 198.82611278 166.94553185 205.05465603 C166.9564284 209.8994482 166.95289763 214.74415035 166.94514847 219.58894539 C166.94316612 221.88477692 166.94553549 224.18061697 166.95258713 226.47643852 C167.01691188 253.27195715 162.76158463 276.20116209 143.35620117 296.14111328 C132.58457045 306.77809862 116.43495777 317.18766447 100.82104492 317.43408203 C100.06952148 317.41990234 99.31799805 317.40572266 98.54370117 317.39111328 C98.56988525 318.59533936 98.59606934 319.79956543 98.62304688 321.0402832 C98.71449124 325.56710762 98.77128829 330.09385287 98.81835938 334.62133789 C98.84329121 336.56972037 98.87724966 338.51801141 98.92089844 340.46606445 C99.23400169 354.81356036 98.88617168 366.29223521 89.29370117 377.82861328 C82.43096463 384.81612685 75.27445275 389.55451447 65.54370117 391.39111328 C63.89370117 391.39111328 62.24370117 391.39111328 60.54370117 391.39111328 C60.54370117 367.30111328 60.54370117 343.21111328 60.54370117 318.39111328 C48.66370117 318.39111328 36.78370117 318.39111328 24.54370117 318.39111328 C24.54370117 342.48111328 24.54370117 366.57111328 24.54370117 391.39111328 C10.68370117 391.39111328 -3.17629883 391.39111328 -17.45629883 391.39111328 C-17.45629883 367.30111328 -17.45629883 343.21111328 -17.45629883 318.39111328 C-29.33629883 318.39111328 -41.21629883 318.39111328 -53.45629883 318.39111328 C-53.45629883 342.48111328 -53.45629883 366.57111328 -53.45629883 391.39111328 C-64.11180926 390.20716768 -74.60321087 386.75314461 -81.99926758 378.47705078 C-88.44772096 369.24521672 -91.78466256 359.9967634 -91.65161133 348.83642578 C-91.64878143 347.93487762 -91.64595154 347.03332947 -91.64303589 346.10446167 C-91.63189322 343.24154052 -91.60679963 340.37893895 -91.58129883 337.51611328 C-91.57126138 335.56820115 -91.56213687 333.62028409 -91.55395508 331.67236328 C-91.53197326 326.91182458 -91.49748432 322.15152301 -91.45629883 317.39111328 C-92.06556213 317.32948502 -92.67482544 317.26785675 -93.30255127 317.20436096 C-94.10642273 317.1197612 -94.91029419 317.03516144 -95.73852539 316.94799805 C-96.5334137 316.86574478 -97.328302 316.78349152 -98.14727783 316.69874573 C-116.76445136 314.21836697 -133.03913432 300.82959271 -144.33129883 286.51611328 C-154.61353922 272.15450577 -158.60901247 257.34001593 -158.6015625 240.00244141 C-158.60492111 238.87459229 -158.60827972 237.74674316 -158.61174011 236.5847168 C-158.6212213 232.86392101 -158.62319213 229.1431704 -158.62426758 225.42236328 C-158.62748324 222.82271303 -158.63084755 220.22306296 -158.63435364 217.62341309 C-158.64033863 212.1729279 -158.64223725 206.72246048 -158.64160156 201.27197266 C-158.64100283 195.00834231 -158.65151762 188.74479866 -158.66734523 182.4811902 C-158.68210432 176.42051187 -158.68558663 170.35987442 -158.68499184 164.29917908 C-158.68616487 161.7381912 -158.69054828 159.17720254 -158.6983242 156.6162262 C-158.74425615 139.91939196 -158.55328019 124.02065098 -153.76879883 107.89111328 C-153.50897217 107.00166016 -153.24914551 106.11220703 -152.98144531 105.19580078 C-150.54586275 97.16351423 -147.33050197 89.83366141 -143.45629883 82.39111328 C-142.88911133 81.26189453 -142.32192383 80.13267578 -141.73754883 78.96923828 C-136.56261561 68.94868577 -130.11479152 60.25476139 -122.89379883 51.64111328 C-122.4590625 51.12226562 -122.02432617 50.60341797 -121.57641602 50.06884766 C-109.32024525 35.70457902 -94.1938086 24.9498246 -77.45629883 16.39111328 C-76.85672363 16.0744873 -76.25714844 15.75786133 -75.6394043 15.43164062 C-68.12819703 11.48758745 -60.46311352 8.55618116 -52.33129883 6.14111328 C-51.56406494 5.90690674 -50.79683105 5.6727002 -50.00634766 5.43139648 C-33.68729916 0.86402807 -16.85529041 -0.10778984 0 0 Z " fill="#DADADA" transform="translate(252.456298828125,55.60888671875)"/>
<path d="M0 0 C0 64.02 0 128.04 0 194 C-1.98 194.99 -3.96 195.98 -6 197 C-7.60335272 198.44435132 -7.60335272 198.44435132 -8.75390625 200.125 C-9.20991211 200.73980225 -9.66591797 201.35460449 -10.13574219 201.98803711 C-10.60657227 202.65198486 -11.07740234 203.31593262 -11.5625 204 C-12.31708496 205.04329468 -12.31708496 205.04329468 -13.08691406 206.10766602 C-14.16517376 207.60659279 -15.23708025 209.11010627 -16.30322266 210.61767578 C-18.06308709 213.08857609 -19.86366794 215.52625193 -21.66796875 217.96484375 C-22.86387138 219.62103114 -24.05792262 221.27855717 -25.25 222.9375 C-25.82306885 223.70513672 -26.3961377 224.47277344 -26.98657227 225.26367188 C-30.68383903 230.52230931 -32.0360729 234.57205423 -31 241 C-29.30835942 245.71878688 -27.13951382 248.20582817 -23 251 C-15.6993151 253.43356163 -7.68599609 252.6157002 0 253 C0 297.88 0 342.76 0 389 C-6.93 389 -13.86 389 -21 389 C-21 365.24 -21 341.48 -21 317 C-32.88 317 -44.76 317 -57 317 C-57 341.09 -57 365.18 -57 390 C-67.65551043 388.8160544 -78.14691205 385.36203133 -85.54296875 377.0859375 C-91.99142213 367.85410344 -95.32836374 358.60565012 -95.1953125 347.4453125 C-95.1924826 346.54376434 -95.18965271 345.64221619 -95.18673706 344.71334839 C-95.17559439 341.85042724 -95.1505008 338.98782566 -95.125 336.125 C-95.11496255 334.17708787 -95.10583804 332.22917081 -95.09765625 330.28125 C-95.07567443 325.5207113 -95.0411855 320.76040973 -95 316 C-95.60926331 315.93837173 -96.21852661 315.87674347 -96.84625244 315.81324768 C-97.6501239 315.72864792 -98.45399536 315.64404816 -99.28222656 315.55688477 C-100.07711487 315.4746315 -100.87200317 315.39237823 -101.690979 315.30763245 C-120.30815254 312.82725369 -136.58283549 299.43847943 -147.875 285.125 C-158.1572404 270.76339249 -162.15271364 255.94890265 -162.14526367 238.61132812 C-162.14862228 237.483479 -162.1519809 236.35562988 -162.15544128 235.19360352 C-162.16492247 231.47280773 -162.1668933 227.75205711 -162.16796875 224.03125 C-162.17118441 221.43159975 -162.17454872 218.83194968 -162.17805481 216.2322998 C-162.1840398 210.78181462 -162.18593843 205.3313472 -162.18530273 199.88085938 C-162.184704 193.61722903 -162.19521879 187.35368538 -162.2110464 181.09007692 C-162.2258055 175.02939859 -162.2292878 168.96876114 -162.22869301 162.9080658 C-162.22986605 160.34707791 -162.23424945 157.78608926 -162.24202538 155.22511292 C-162.28795733 138.52827868 -162.09698136 122.6295377 -157.3125 106.5 C-157.05267334 105.61054688 -156.79284668 104.72109375 -156.52514648 103.8046875 C-154.08956392 95.77240095 -150.87420314 88.44254813 -147 81 C-146.4328125 79.87078125 -145.865625 78.7415625 -145.28125 77.578125 C-140.10631678 67.55757249 -133.65849269 58.86364811 -126.4375 50.25 C-126.00276367 49.73115234 -125.56802734 49.21230469 -125.12011719 48.67773438 C-112.86394642 34.31346573 -97.73750977 23.55871132 -81 15 C-80.4004248 14.68337402 -79.80084961 14.36674805 -79.18310547 14.04052734 C-71.503935 10.00827853 -63.70489784 7.10398257 -55.375 4.6875 C-54.54073486 4.44491455 -53.70646973 4.2023291 -52.84692383 3.95239258 C-34.92112034 -0.9782927 -19.05637741 0 0 0 Z " fill="#FEFEFE" transform="translate(256,57)"/>
<path d="M0 0 C6.38946168 5.35426007 12.4645649 11.02970058 18.53491211 16.73901367 C19.09782959 17.26766903 19.66074707 17.79632439 20.24072266 18.3409996 C31.37270654 28.8012567 42.37861847 39.39053707 53.3396368 50.02958202 C60.30176105 56.78195368 67.29888127 63.48810507 74.39672852 70.09790039 C126.13573813 118.3465668 126.13573813 118.3465668 127.92803288 138.97634602 C128.16200571 147.58160927 126.67423362 155.72835417 124.47225761 164.00532722 C123.53743298 167.95374266 123.33500214 171.9684758 123.07305908 176.00552368 C122.74046228 180.40435988 121.88738376 184.68426926 121 189 C120.80132324 189.9792041 120.60264648 190.9584082 120.39794922 191.96728516 C110.27380662 240.34324445 88.3571455 284.32808981 54 320 C53.36787598 320.65935547 52.73575195 321.31871094 52.08447266 321.99804688 C42.94002521 331.48630305 33.64265991 340.2262044 23 348 C21.84894983 348.85806152 20.69790823 349.71613451 19.546875 350.57421875 C11.35724019 356.61177396 2.85461724 361.99457302 -6 367 C-6.70721191 367.4021875 -7.41442383 367.804375 -8.14306641 368.21875 C-34.10430679 382.83515101 -62.65424059 392.11434828 -92 397 C-92.6688623 397.11714355 -93.33772461 397.23428711 -94.02685547 397.35498047 C-97.30928316 397.91156244 -100.5277588 398.2947732 -103.85083008 398.52270508 C-107.72388552 398.80130047 -111.37621458 399.49280793 -115.17480469 400.28613281 C-125.33174982 401.87941441 -134.73908028 402.23593834 -143.42510986 396.16662598 C-154.35868959 387.66038803 -163.70085555 377.18395528 -173.04571533 367.01422119 C-176.95254691 362.79720174 -180.94870217 358.66664538 -184.9375 354.52734375 C-192.71329445 346.43240164 -200.38733182 338.24833044 -208 330 C-204.27418755 328.75806252 -203.20783466 329.45168212 -199.625 330.875 C-195.97580897 332.3125601 -192.90334898 333.2193302 -189 334 C-189 309.91 -189 285.82 -189 261 C-177.12 261 -165.24 261 -153 261 C-153 285.09 -153 309.18 -153 334 C-139.14 334 -125.28 334 -111 334 C-111 309.91 -111 285.82 -111 261 C-99.12 261 -87.24 261 -75 261 C-75 285.09 -75 309.18 -75 334 C-60.28694895 330.07651972 -51.62085498 327.070078 -43 315 C-36.81330199 303.9392856 -37.22185948 292.50173091 -37.1875 280.1875 C-37.1643114 278.22328006 -37.13893717 276.25908465 -37.11132812 274.29492188 C-37.0490375 269.52985608 -37.01625993 264.76543605 -37 260 C-35.41433228 259.63322144 -35.41433228 259.63322144 -33.79663086 259.2590332 C-22.84712248 256.66818338 -22.84712248 256.66818338 -12.5625 252.1875 C-11.56742432 251.66712158 -11.56742432 251.66712158 -10.55224609 251.13623047 C-5.2298936 248.28017504 -0.47736398 245.07186687 4 241 C5.21042969 239.94425781 5.21042969 239.94425781 6.4453125 238.8671875 C20.79362452 225.5719626 28.80735718 206.77766614 30.18924904 187.33771324 C30.26360389 184.61882739 30.28185901 181.90616376 30.2746582 179.1862793 C30.27976913 178.16662582 30.28488007 177.14697235 30.29014587 176.09642029 C30.30393991 172.75562511 30.30309145 169.41503887 30.30078125 166.07421875 C30.30467639 163.72125677 30.30901272 161.36829548 30.31376648 159.01533508 C30.32120887 154.08889487 30.32095372 149.16252632 30.31567383 144.23608398 C30.30991039 137.98437673 30.32674419 131.73296877 30.3500185 125.48131084 C30.36490403 120.6190678 30.36560714 115.75689415 30.36250877 110.89463234 C30.36301552 108.59341659 30.36812883 106.29219627 30.37832069 103.99100304 C30.51394382 69.06188754 24.4531376 32.21378169 1.734375 4.20703125 C0 2 0 2 0 0 Z " fill="#524798" transform="translate(388,113)"/>
<path d="M0 0 C1.14855469 0.60134766 1.14855469 0.60134766 2.3203125 1.21484375 C11.14907903 6.37742757 17.36269939 15.15407771 20 25 C20.40933321 27.9525674 20.47853947 30.83457377 20.4375 33.8125 C20.42847656 34.60076172 20.41945313 35.38902344 20.41015625 36.20117188 C20.0739034 47.58706715 16.02082974 55.89384229 8 64 C-1.98527731 72.391882 -12.36249709 74.01847491 -25.03808594 73.21142578 C-35.40813688 72.09389665 -43.96059745 64.93604869 -50.4609375 57.21875 C-56.96212186 47.84648422 -57.9280575 37.06026175 -57 26 C-54.32362244 14.96810226 -47.36146363 6.4537213 -37.8125 0.5 C-26.44258735 -5.98631833 -11.48411744 -6.51856488 0 0 Z " fill="#505052" transform="translate(208,154)"/>
<path d="M0 0 C9.5528611 5.50471798 16.8135028 12.82670456 20.97265625 23.13671875 C23.55176237 33.09445958 23.12666273 44.12028962 18.64453125 53.38671875 C12.91075019 62.81798479 5.14369209 69.68724832 -5.34375 73.26953125 C-16.57711579 75.9140776 -27.34862652 74.88152026 -37.1640625 68.81640625 C-46.02125413 62.64167837 -52.39443057 54.72662176 -55.02734375 44.13671875 C-56.19970263 34.79805496 -56.29535168 25.24691653 -51.02734375 17.13671875 C-50.38796875 16.06421875 -49.74859375 14.99171875 -49.08984375 13.88671875 C-37.74584506 -1.23861283 -17.777813 -8.69069761 0 0 Z " fill="#333333" transform="translate(339.02734375,152.86328125)"/>
<path d="M0 0 C5.25450538 3.51203062 8.84907269 8.13971171 12.25 13.375 C13.18762947 14.79244304 14.12646895 16.20908628 15.06640625 17.625 C15.54352051 18.346875 16.02063477 19.06875 16.51220703 19.8125 C18.00338459 22.00497636 19.56123734 24.12917936 21.15234375 26.25 C30.56814487 38.92998522 30.56814487 38.92998522 29.62109375 45.88671875 C28.35860882 50.18234359 27.12452285 53.51767387 23.33352661 56.16273499 C18.00929503 58.95868709 13.64473631 59.57833241 7.6796875 59.49609375 C6.81739532 59.49754898 5.95510315 59.49900421 5.06668091 59.50050354 C3.25649614 59.4988538 1.44629598 59.48739709 -0.36376953 59.46655273 C-3.12463168 59.43750388 -5.88358058 59.44598185 -8.64453125 59.45898438 C-10.4114676 59.45274846 -12.17839794 59.44435867 -13.9453125 59.43359375 C-15.17364304 59.43799721 -15.17364304 59.43799721 -16.42678833 59.44248962 C-22.02528695 59.35080821 -26.35329404 58.4140976 -30.64453125 54.5 C-34.29808269 49.80781354 -35.46900779 46.31058958 -35.38867188 40.46142578 C-34.66431956 35.87416446 -31.97592063 32.58994998 -29.25 28.9375 C-28.66742432 28.12474609 -28.08484863 27.31199219 -27.48461914 26.47460938 C-25.67735363 23.96702543 -23.84060878 21.48317363 -22 19 C-20.8674741 17.43953858 -19.7359264 15.87836664 -18.60546875 14.31640625 C-17.55154185 12.87609256 -16.49564422 11.43721823 -15.4375 10 C-14.70611816 9.00407837 -14.70611816 9.00407837 -13.95996094 7.98803711 C-7.01961382 -1.23875538 -7.01961382 -1.23875538 0 0 Z " fill="#515153" transform="translate(259,251)"/>
<path d="M0 0 C5 0 5 0 6.77124023 1.40063477 C7.29919189 2.05346436 7.82714355 2.70629395 8.37109375 3.37890625 C8.96647949 4.11125488 9.56186523 4.84360352 10.17529297 5.59814453 C13.24589142 9.63996251 16.18632762 13.75542433 19.0625 17.9375 C19.94131836 19.20110352 19.94131836 19.20110352 20.83789062 20.49023438 C22.00049953 22.16640414 23.15720102 23.84668858 24.30761719 25.53125 C25.43931697 27.18210808 26.58598392 28.82280135 27.74707031 30.453125 C28.29073242 31.23042969 28.83439453 32.00773437 29.39453125 32.80859375 C29.88155518 33.4936499 30.3685791 34.17870605 30.87036133 34.88452148 C32.96501087 38.80717943 32.828039 42.71825988 32 47 C30.16710649 52.16895364 27.81916169 54.10850299 23 57 C15.41 57 7.82 57 0 57 C0 38.19 0 19.38 0 0 Z " fill="#333333" transform="translate(256,252)"/>
<path d="M0 0 C4.08467897 1.25774573 7.6408094 2.8099605 11.375 4.875 C18.70154553 8.63977402 25.98949838 10.20454274 34 12 C34 19.26 34 26.52 34 34 C29.28042244 29.95464781 24.78102542 25.92979507 20.41015625 21.54296875 C19.82076767 20.9545369 19.23137909 20.36610504 18.62413025 19.75984192 C17.39361893 18.53000519 16.16434566 17.29892856 14.9362793 16.06665039 C13.04655252 14.1715068 11.15146729 12.28183723 9.25585938 10.39257812 C8.05697038 9.19302935 6.85839108 7.99317097 5.66015625 6.79296875 C5.09152359 6.22636032 4.52289093 5.65975189 3.93702698 5.07597351 C0 1.11498718 0 1.11498718 0 0 Z " fill="#534899" transform="translate(127,361)"/>
</svg>
